<?xml version="1.0" encoding="iso-8859-1"?>
<!-- Generator: Adobe Illustrator 19.0.0, SVG Export Plug-In . SVG Version: 6.00 Build 0)  -->
<svg version="1.1" id="Capa_1" xmlns="http://www.w3.org/2000/svg" xmlns:xlink="http://www.w3.org/1999/xlink" x="0px" y="0px"
	 viewBox="0 0 512 512" style="enable-background:new 0 0 512 512;" xml:space="preserve">
<path style="fill:#596775;" d="M399.965,143.152C398.817,63.901,334.253,0,254.728,0c-79.769,0-144.494,64.291-145.256,143.879
	C48.246,160.97,3.313,217.118,3.313,283.795c0,80.242,65.049,145.292,145.292,145.292c31.033,0,59.767-9.765,83.37-26.341h48.051
	c23.603,16.576,52.337,26.341,83.371,26.341c80.242,0,145.292-65.049,145.292-145.292
	C508.686,216.186,462.503,159.368,399.965,143.152z"/>
<path style="fill:#35404A;" d="M399.965,143.152C398.817,63.901,334.253,0,254.728,0l0,0c0,16.193,11.074,30.283,26.808,34.115
	c49.443,12.043,86.76,56.562,87.526,109.485c0.202,13.914,9.676,25.976,23.145,29.468c50.507,13.097,85.697,58.742,85.572,111.004
	c-0.146,62.318-50.954,113.505-113.257,114.104c-18.937,0.205-36.95-4.11-53.618-12.759c-17.117-8.882-36.019-13.577-54.676-13.577
	c-19.204,0-38.053,4.581-54.509,13.248c-16.493,8.688-34.363,13.092-53.116,13.092c-14.582,0-28.797-2.717-42.071-7.969
	c-14.991-5.932-32.097-0.656-41.367,12.534l0,0c23.612,16.593,52.385,26.341,83.436,26.341c30.363,0,58.511-9.365,81.82-25.294
	l-47.183,63.193C168.854,485.213,181.838,512,205.059,512H306.94c23.221,0,36.205-26.787,21.818-45.014l-47.15-63.15
	c23.665,16.159,52.325,25.542,83.214,25.245c79.219-0.762,143.68-65.716,143.865-144.938
	C508.844,216.38,462.611,159.396,399.965,143.152z"/>
<g>
</g>
<g>
</g>
<g>
</g>
<g>
</g>
<g>
</g>
<g>
</g>
<g>
</g>
<g>
</g>
<g>
</g>
<g>
</g>
<g>
</g>
<g>
</g>
<g>
</g>
<g>
</g>
<g>
</g>
</svg>
