<?xml version="1.0" encoding="iso-8859-1"?>
<!-- Generator: Adobe Illustrator 19.0.0, SVG Export Plug-In . SVG Version: 6.00 Build 0)  -->
<svg version="1.1" id="Capa_1" xmlns="http://www.w3.org/2000/svg" xmlns:xlink="http://www.w3.org/1999/xlink" x="0px" y="0px"
	 viewBox="0 0 511.999 511.999" style="enable-background:new 0 0 511.999 511.999;" xml:space="preserve">
<path style="fill:#FF5368;" d="M217.849,18.501L54.27,225.873c-13.934,17.665-13.934,42.589,0,60.253L217.85,493.499
	c19.459,24.668,56.842,24.668,76.3,0l163.579-207.372c13.934-17.665,13.934-42.589,0-60.253L294.15,18.501
	C274.691-6.167,237.308-6.167,217.849,18.501z"/>
<path style="fill:#C5324F;" d="M294.15,18.501c-6.899-8.746-16.054-14.375-25.863-16.919c-7.073,10.811-6.846,25.357,1.598,36.059
	l163.579,207.372c5.103,6.467,5.103,15.504,0,21.972L269.885,474.358c-8.443,10.704-8.671,25.25-1.598,36.059
	c9.807-2.545,18.964-8.173,25.863-16.919l163.579-207.372c13.934-17.665,13.934-42.589,0-60.253L294.15,18.501z"/>
<g>
</g>
<g>
</g>
<g>
</g>
<g>
</g>
<g>
</g>
<g>
</g>
<g>
</g>
<g>
</g>
<g>
</g>
<g>
</g>
<g>
</g>
<g>
</g>
<g>
</g>
<g>
</g>
<g>
</g>
</svg>
