<?xml version="1.0" encoding="iso-8859-1"?>
<!-- Generator: Adobe Illustrator 19.0.0, SVG Export Plug-In . SVG Version: 6.00 Build 0)  -->
<svg version="1.1" id="Capa_1" xmlns="http://www.w3.org/2000/svg" xmlns:xlink="http://www.w3.org/1999/xlink" x="0px" y="0px"
	 viewBox="0 0 512 512" style="enable-background:new 0 0 512 512;" xml:space="preserve">
<path style="fill:#596775;" d="M42.211,380.785c57.621,63.664,154.52,65,213.789,4.008c59.269,60.992,156.168,59.656,213.789-4.008
	c54.886-60.642,50.669-156.117-6.275-214.715L334.761,33.573c-43.498-44.763-114.024-44.763-157.522,0L48.485,166.069
	C-8.459,224.667-12.675,320.142,42.211,380.785z"/>
<path style="fill:#35404A;" d="M463.516,166.069C323.727,22.218,328.432,24.964,310.397,14.568
	c-9.368,11.979-8.694,29.331,2.202,40.543l128.753,132.496c46.135,47.476,48.613,124.832,5.525,172.44
	c-45.565,50.341-121.699,51.587-168.713,3.208c-12.123-12.474-32.188-12.493-44.328,0c-41.036,42.231-103.506,46.152-148.422,14.734
	c-12.567-8.792-30.198-8.977-43.203,2.797c50.549,55.85,131.321,63.728,190.403,23.645l-49.372,62.557
	C168.855,485.213,181.838,512,205.06,512H306.94c23.221,0,36.205-26.787,21.818-45.014l-49.371-62.556
	c59.082,40.082,139.854,32.204,190.402-23.646C524.675,320.142,520.458,224.667,463.516,166.069z"/>
<g>
</g>
<g>
</g>
<g>
</g>
<g>
</g>
<g>
</g>
<g>
</g>
<g>
</g>
<g>
</g>
<g>
</g>
<g>
</g>
<g>
</g>
<g>
</g>
<g>
</g>
<g>
</g>
<g>
</g>
</svg>
